<?xml version="1.0" standalone="no"?>
<!DOCTYPE svg PUBLIC "-//W3C//DTD SVG 20010904//EN"
 "http://www.w3.org/TR/2001/REC-SVG-20010904/DTD/svg10.dtd">
<svg version="1.0" xmlns="http://www.w3.org/2000/svg"
 width="512.000000pt" height="512.000000pt" viewBox="0 0 512.000000 512.000000"
 preserveAspectRatio="xMidYMid meet">
<metadata>
Created by potrace 1.11, written by Peter Selinger 2001-2013
</metadata>
<g transform="translate(0.000000,512.000000) scale(0.100000,-0.100000)"
fill="#000000" stroke="none">
<path d="M2430 4854 c-587 -43 -1118 -292 -1521 -711 -331 -345 -541 -777
-616 -1263 -24 -161 -24 -492 0 -650 66 -422 225 -790 484 -1118 75 -94 261
-280 358 -358 313 -250 698 -417 1105 -481 160 -24 510 -25 668 0 840 132
1533 693 1826 1481 96 255 140 511 140 801 0 378 -76 701 -244 1034 -339 676
-989 1140 -1745 1246 -106 15 -363 25 -455 19z m358 -335 c483 -52 946 -293
1270 -659 204 -231 364 -536 436 -830 62 -256 73 -581 27 -827 -158 -846 -828
-1489 -1677 -1608 -144 -21 -412 -20 -551 0 -290 44 -562 147 -803 305 -124
82 -185 131 -304 248 -324 319 -523 727 -577 1186 -15 124 -6 441 14 551 49
260 134 486 260 693 319 523 862 871 1467 941 109 12 326 13 438 0z"/>
<path d="M2450 4329 c-353 -20 -716 -163 -1002 -396 -99 -81 -254 -247 -330
-353 -77 -109 -184 -315 -227 -441 -222 -646 -58 -1363 424 -1844 474 -475
1172 -642 1809 -435 537 175 964 598 1140 1130 208 629 54 1316 -404 1794
-372 388 -857 575 -1410 545z m627 -1339 l477 -365 -107 -3 -107 -3 0 -434 0
-435 -170 0 -170 0 0 240 0 240 -190 0 -190 0 0 -240 0 -240 -385 0 -385 0 0
435 0 434 -127 3 -128 3 495 367 c272 202 498 366 502 365 4 -1 222 -166 485
-367z"/>
</g>
</svg>
